<svg id="Anleitung" xmlns="http://www.w3.org/2000/svg" viewBox="0 0 404.81 56.68"><defs><style>.cls-1{fill:#fff;}</style></defs><title>OXID_eshop</title><path class="cls-1" d="M129.7,170q15.54,0,21.38.77,8.4,1.13,10.3,8,1.3,4.71,1.3,15.93t-1.3,16q-1.9,6.86-10.3,8-5.84.77-21.23.77-15.68,0-21.52-.77-8.4-1.12-10.3-8-1.3-4.71-1.3-16.24,0-11,1.3-15.64,1.9-6.86,10.3-8Q114.13,170,129.7,170Zm0,12.48q-11.64,0-14,.6a4.75,4.75,0,0,0-3.55,3.15q-.84,2.44-.84,9.72a31.27,31.27,0,0,0,.46,6.36q.88,3.66,5.31,4.18a121.36,121.36,0,0,0,12.69.42q8.82,0,11.74-.32a8.6,8.6,0,0,0,4.32-1.41,5,5,0,0,0,1.72-2.9,30.24,30.24,0,0,0,.46-6.28,58.66,58.66,0,0,0-.35-7.59,8.11,8.11,0,0,0-1.27-3.66,5.48,5.48,0,0,0-3.83-1.92Q139.93,182.48,129.74,182.48Z" transform="translate(-96.72 -170)"/><path class="cls-1" d="M164.44,170.7h20l14.8,16.84,14.91-16.84H234.4l-23.1,23.73,24.22,24.26H215l-15.71-17.26-15.61,17.26H162.57l24.54-24.26Z" transform="translate(-96.72 -170)"/><path class="cls-1" d="M238.44,170.7H253.8v48H238.44Z" transform="translate(-96.72 -170)"/><path class="cls-1" d="M260.52,218.69v-48h34.63q9.21,0,12.06.14a39.37,39.37,0,0,1,5.94.77q7.21,1.48,9.39,8.16a26.12,26.12,0,0,1,1.09,5.43q.28,2.9.28,8.77,0,6.43-.33,9.74a27.41,27.41,0,0,1-1.25,6,11.28,11.28,0,0,1-8.82,7.8,43.09,43.09,0,0,1-6.68.93q-3.55.23-11.64.23Zm14.41-12.23h20.36a66.44,66.44,0,0,0,8.28-.37,7.59,7.59,0,0,0,3.74-1.28,5.76,5.76,0,0,0,1.69-3.23,33.34,33.34,0,0,0,.49-6.68,39.43,39.43,0,0,0-.42-6.71,7.11,7.11,0,0,0-1.48-3.45,5.8,5.8,0,0,0-3.46-1.67,68.92,68.92,0,0,0-9-.37H274.93Z" transform="translate(-96.72 -170)"/><path class="cls-1" d="M371.5,211.82h3.68q-.09,4-2.81,5.57T362.9,219a61.64,61.64,0,0,1-8.47-.43,10.41,10.41,0,0,1-4.37-1.46q-3.37-2.39-3.37-9.45,0-4.95,1.43-7.43A6.81,6.81,0,0,1,352,197a30.88,30.88,0,0,1,8.57-.83,39.79,39.79,0,0,1,8.3.61,7.61,7.61,0,0,1,4.08,2.34,7.91,7.91,0,0,1,1.73,3.38,28.24,28.24,0,0,1,.52,5.86H350.45q.14,4.15,1.64,5.7a5.72,5.72,0,0,0,3.22,1.44,47,47,0,0,0,7.21.39,31.12,31.12,0,0,0,5.53-.35,4.73,4.73,0,0,0,2.63-1.29A4.2,4.2,0,0,0,371.5,211.82Zm-.16-6.47q0-3.26-1.73-4.55a7,7,0,0,0-3.15-1.21,38.7,38.7,0,0,0-5.94-.34,32.2,32.2,0,0,0-5.21.32,6.21,6.21,0,0,0-2.8,1.11q-1.66,1.29-1.92,4.66Z" transform="translate(-96.72 -170)"/><path class="cls-1" d="M377.83,210.93h3.75v.63a6.2,6.2,0,0,0,.39,2.58,2.61,2.61,0,0,0,1.54,1.2q1.52.54,8.77.54,4.52,0,6.29-.2a5.29,5.29,0,0,0,2.54-.79,3.52,3.52,0,0,0-.21-5.21,9.89,9.89,0,0,0-4.62-.71q-1.05,0-10.15-.12a19.14,19.14,0,0,1-3.79-.37,6,6,0,0,1-2.36-1.05q-1.78-1.38-1.78-4.66a5.74,5.74,0,0,1,2.23-5,9.08,9.08,0,0,1,3.84-1.18,61.18,61.18,0,0,1,7.69-.36,40.48,40.48,0,0,1,8.26.61,6.74,6.74,0,0,1,3.9,2.16,3.72,3.72,0,0,1,.79,1.58,15.36,15.36,0,0,1,.18,2.8h-3.7a3.9,3.9,0,0,0-.68-2.67,5.23,5.23,0,0,0-2.81-1.05,41.77,41.77,0,0,0-6-.33q-7.22,0-8.77,1A2.81,2.81,0,0,0,382,202.8a2.37,2.37,0,0,0,1.31,2.41,14.73,14.73,0,0,0,5.3.52q3.94-.07,10.2.19,3.8.14,5.47,1.66t1.68,4.83a7.63,7.63,0,0,1-.59,3.23,4.75,4.75,0,0,1-1.9,2,9.61,9.61,0,0,1-3.75,1,72.31,72.31,0,0,1-7.52.29,73.35,73.35,0,0,1-8.17-.33,9.12,9.12,0,0,1-3.9-1.17,4.62,4.62,0,0,1-1.77-2,8.81,8.81,0,0,1-.5-3.33Q377.8,211.82,377.83,210.93Z" transform="translate(-96.72 -170)"/><path class="cls-1" d="M409.26,186.7h3.52v13.05h.28a5.79,5.79,0,0,1,3.49-2.84,28.62,28.62,0,0,1,7.8-.75,33.62,33.62,0,0,1,7,.54,7.14,7.14,0,0,1,3.66,1.88,5.89,5.89,0,0,1,1.5,2.88,29.8,29.8,0,0,1,.38,5.67v11.55h-3.52V208.24a32.38,32.38,0,0,0-.23-4.78,4.8,4.8,0,0,0-1-2.27,4.7,4.7,0,0,0-2.71-1.49,25.87,25.87,0,0,0-5.47-.43,27.14,27.14,0,0,0-6.33.57,6.61,6.61,0,0,0-3.42,1.86,4.79,4.79,0,0,0-1.12,2.18,24.3,24.3,0,0,0-.26,4.36v10.45h-3.52Z" transform="translate(-96.72 -170)"/><path class="cls-1" d="M453.7,196.17a68,68,0,0,1,7.75.32,10.14,10.14,0,0,1,3.9,1.16,7.22,7.22,0,0,1,3,3.6,17.42,17.42,0,0,1,.94,6.34,16,16,0,0,1-1.12,6.77A6.85,6.85,0,0,1,466,217.1a9.22,9.22,0,0,1-3.6,1.43,40,40,0,0,1-7.17.45,59.61,59.61,0,0,1-7.15-.32,11.24,11.24,0,0,1-3.91-1.14A6.86,6.86,0,0,1,441,214a17.67,17.67,0,0,1-1-6.53q0-4.69,1.38-7.1A7,7,0,0,1,445.3,197,29.44,29.44,0,0,1,453.7,196.17Zm.56,3.09a39.86,39.86,0,0,0-5.27.26,7.11,7.11,0,0,0-2.84.94,4.52,4.52,0,0,0-1.8,2.52,15.67,15.67,0,0,0-.56,4.7,13,13,0,0,0,.75,5.05,4.43,4.43,0,0,0,2.58,2.38q2,.77,7.85.77a39.8,39.8,0,0,0,5.59-.28,6.47,6.47,0,0,0,2.85-1.05,4.49,4.49,0,0,0,1.68-2.46,16.47,16.47,0,0,0,.5-4.62,12.47,12.47,0,0,0-.8-5.16,4.56,4.56,0,0,0-3-2.44A31.15,31.15,0,0,0,454.26,199.26Z" transform="translate(-96.72 -170)"/><path class="cls-1" d="M472.68,226.68V196.45h3.52v2.86h.21a5.5,5.5,0,0,1,3.23-2.52,29.36,29.36,0,0,1,7.34-.62,52,52,0,0,1,6.81.33,10.3,10.3,0,0,1,3.76,1.2,6.88,6.88,0,0,1,3.14,3.66,18.35,18.35,0,0,1,.84,6.23q0,5-1.55,7.43a7.28,7.28,0,0,1-4.18,3.19,37.22,37.22,0,0,1-9.2.77,27.85,27.85,0,0,1-6.89-.6,5.9,5.9,0,0,1-3.3-2.33h-.21v10.64Zm15.12-27.42a53.37,53.37,0,0,0-6.3.27,7.29,7.29,0,0,0-3.07.95,4.69,4.69,0,0,0-1.79,2.45,14.1,14.1,0,0,0-.55,4.42,15.82,15.82,0,0,0,.6,5,4.38,4.38,0,0,0,2.05,2.48q1.92,1.05,7.78,1.05a47.45,47.45,0,0,0,5.89-.27,7.34,7.34,0,0,0,3-.95,4.65,4.65,0,0,0,1.82-2.47,14.63,14.63,0,0,0,.55-4.51,15.56,15.56,0,0,0-.59-4.91,4.33,4.33,0,0,0-2-2.45Q493.28,199.26,487.8,199.26Z" transform="translate(-96.72 -170)"/></svg>